<?xml version="1.0" ?><!DOCTYPE svg  PUBLIC '-//W3C//DTD SVG 1.0//EN'  'http://www.w3.org/TR/2001/REC-SVG-20010904/DTD/svg10.dtd'><svg enable-background="new 0 0 24 24" id="Layer_1" version="1.0" viewBox="0 0 24 24" xml:space="preserve" xmlns="http://www.w3.org/2000/svg" xmlns:xlink="http://www.w3.org/1999/xlink"><g><circle cx="18.5" cy="6.5" r="2.5" fill="#044d4e"/></g><g><circle cx="5.5" cy="6.5" r="2.5" fill="#044d4e"/></g><g><circle cx="12" cy="5" r="3" fill="#044d4e"/></g><path d="M18.5,10c-0.5,0-1.6,0.2-2,0.5c0,0,0.5,1.1,0.5,2.5c0,0-1.2-4-5-4s-5,4-5,4c0-1.4,0.5-2.5,0.5-2.5C7.1,10.2,6,10,5.5,10  C3.8,10,2,12,2,13.3V19c0,1.1,0.9,2,2,2h2.9c0.9-0.9,2.5-2,5.1-2s4.2,1.1,5.1,2H20c1.1,0,2-0.9,2-2v-5.7C22,12,20,10,18.5,10z   M12,18c-1.4,0-2.5-1.1-2.5-2.5c0-1.4,1.1-2.5,2.5-2.5s2.5,1.1,2.5,2.5C14.5,16.9,13.4,18,12,18z" fill="#044d4e"/></svg>