<?xml version="1.0" encoding="UTF-8" standalone="no"?>
<svg width="180px" height="180px" viewBox="0 0 180 180" version="1.1" xmlns="http://www.w3.org/2000/svg" xmlns:xlink="http://www.w3.org/1999/xlink">
    <!-- Generator: Sketch 49.3 (51167) - http://www.bohemiancoding.com/sketch -->
    <title>icon_merge@1.5x</title>
    <desc>Created with Sketch.</desc>
    <defs></defs>
    <g id="Phone" stroke="none" stroke-width="1" fill="none" fill-rule="evenodd" stroke-linecap="round" stroke-linejoin="round">
        <g id="phone-buttons" transform="translate(-1123.000000, -294.000000)">
            <g id="icon_merge" transform="translate(1124.000000, 295.000000)">
                <path d="M178,89 C178,138.154107 138.154107,178 89,178 C39.8458933,178 0,138.154107 0,89 C0,39.8458933 39.8458933,0 89,0 C138.154107,0 178,39.8458933 178,89 Z" id="Stroke-1" stroke="#D9D9D6" stroke-width="2" fill-opacity="0.95" fill="transparent"></path>
                <g id="merge" transform="translate(26.000000, 42.000000)" stroke="#ffffff" stroke-width="20">
                    <g id="ic_ph_merge-left-side-copy" transform="translate(48.436815, 48.436815) scale(-1, 1) rotate(-45.000000) translate(-48.436815, -48.436815) translate(23.936815, 4.436815)">
                        <g id="merge" transform="translate(0.000000, 0.000000)">
                            <path d="M0.129013046,87.0859519 L5.38092211,49.8688618 C6.19248675,44.117796 8.83691614,38.7817271 12.9216569,34.65277 L46.129013,1.08595194" id="line"></path>
                            <path d="M46.9011397,0.563940143 L47.0147132,24.5636714" id="line"></path>
                        </g>
                    </g>
                    <g id="ic_ph_merge-right-side-copy" transform="translate(77.760816, 48.674647) rotate(-45.000000) translate(-77.760816, -48.674647) translate(53.260816, 5.174647)">
                        <g id="merge" transform="translate(-0.000000, -0.000000)">
                            <path d="M0.765052015,86.7219909 L6.01696108,49.5049007 C6.82852572,43.753835 9.47295511,38.4177661 13.5576959,34.288809 L46.765052,0.721990906" id="line"></path>
                            <path d="M47.5371786,0.199979112 L47.6507522,24.1997104" id="line"></path>
                        </g>
                    </g>
                </g>
            </g>
        </g>
    </g>
</svg>