<?xml version="1.0" encoding="iso-8859-1"?>
<!-- Generator: Adobe Illustrator 19.0.0, SVG Export Plug-In . SVG Version: 6.00 Build 0)  -->
<svg version="1.1" id="Capa_1" xmlns="http://www.w3.org/2000/svg" xmlns:xlink="http://www.w3.org/1999/xlink" x="0px" y="0px"
	 viewBox="0 0 384 384" style="enable-background:new 0 0 384 384;" xml:space="preserve">
<g>
	<path style="fill:#303C42;" d="M224,170.667c2.729,0,5.458-1.042,7.542-3.125L341.333,57.75v59.583
		c0,5.896,4.771,10.667,10.667,10.667c5.896,0,10.667-4.771,10.667-10.667V32c0-5.896-4.771-10.667-10.667-10.667h-85.333
		C260.771,21.333,256,26.104,256,32s4.771,10.667,10.667,10.667h59.583L216.458,152.458c-4.167,4.167-4.167,10.917,0,15.083
		C218.542,169.625,221.271,170.667,224,170.667z"/>
	<path style="fill:#303C42;" d="M353.188,252.052c-23.51,0-46.594-3.677-68.469-10.906c-10.906-3.719-23.323-0.833-30.438,6.417
		l-43.177,32.594c-50.073-26.729-80.917-57.563-107.281-107.26l31.635-42.052c8.219-8.208,11.167-20.198,7.635-31.448
		c-7.26-21.99-10.948-45.063-10.948-68.583C132.146,13.823,118.323,0,101.333,0H30.813C13.823,0,0,13.823,0,30.813
		C0,225.563,158.438,384,353.188,384c16.99,0,30.813-13.823,30.813-30.813v-70.323C384,265.875,370.177,252.052,353.188,252.052z"/>
</g>
<path style="fill:#4FC3F7;" d="M362.667,353.188c0,5.229-4.25,9.479-9.479,9.479c-182.99,0-331.854-148.865-331.854-331.854
	c0-5.229,4.25-9.479,9.479-9.479h70.521c5.229,0,9.479,4.25,9.479,9.479c0,25.802,4.052,51.125,11.979,75.115
	c1.104,3.542,0.208,7.208-3.375,10.938L82.75,165.427c-2.458,3.26-2.844,7.625-1,11.26c29.927,58.823,66.292,95.188,125.531,125.542
	c3.604,1.885,8.021,1.49,11.292-0.979l49.677-37.635c2.51-2.51,6.271-3.406,9.667-2.25c24.156,7.979,49.479,12.021,75.271,12.021
	c5.229,0,9.479,4.25,9.479,9.479V353.188z"/>
<path style="opacity:0.1;enable-background:new    ;" d="M353.188,273.385c-7.56,0-15.06-0.454-22.521-1.146v13.876
	c0,25.544-22.375,45.284-47.751,42.357c-68.333-7.882-130.208-36.833-179.497-79.857c60.88,69.723,150.152,114.051,249.77,114.051
	c5.229,0,9.479-4.25,9.479-9.479v-70.323C362.667,277.635,358.417,273.385,353.188,273.385z"/>
<linearGradient id="SVGID_1_" gradientUnits="userSpaceOnUse" x1="-108.277" y1="577.1292" x2="-87.4587" y2="567.4222" gradientTransform="matrix(21.3333 0 0 -21.3333 2297.6667 12362.334)">
	<stop  offset="0" style="stop-color:#FFFFFF;stop-opacity:0.2"/>
	<stop  offset="1" style="stop-color:#FFFFFF;stop-opacity:0"/>
</linearGradient>
<path style="fill:url(#SVGID_1_);" d="M224,170.667c2.729,0,5.458-1.042,7.542-3.125L341.333,57.75v59.583
	c0,5.896,4.771,10.667,10.667,10.667c5.896,0,10.667-4.771,10.667-10.667V32c0-5.896-4.771-10.667-10.667-10.667h-85.333
	C260.771,21.333,256,26.104,256,32s4.771,10.667,10.667,10.667h59.583L216.458,152.458c-4.167,4.167-4.167,10.917,0,15.083
	C218.542,169.625,221.271,170.667,224,170.667z M353.188,252.052c-23.51,0-46.594-3.677-68.469-10.906
	c-10.906-3.719-23.323-0.833-30.438,6.417l-43.177,32.594c-50.073-26.729-80.917-57.563-107.281-107.26l31.635-42.052
	c8.219-8.208,11.167-20.198,7.635-31.448c-7.26-21.99-10.948-45.063-10.948-68.583C132.146,13.823,118.323,0,101.333,0H30.813
	C13.823,0,0,13.823,0,30.813C0,225.563,158.438,384,353.188,384c16.99,0,30.813-13.823,30.813-30.813v-70.323
	C384,265.875,370.177,252.052,353.188,252.052z"/>
<g>
</g>
<g>
</g>
<g>
</g>
<g>
</g>
<g>
</g>
<g>
</g>
<g>
</g>
<g>
</g>
<g>
</g>
<g>
</g>
<g>
</g>
<g>
</g>
<g>
</g>
<g>
</g>
<g>
</g>
</svg>
