<?xml version="1.0" encoding="UTF-8" standalone="no"?>
<svg width="37px" height="37px" viewBox="0 0 37 37" version="1.1" xmlns="http://www.w3.org/2000/svg" xmlns:xlink="http://www.w3.org/1999/xlink">
    <!-- Generator: Sketch 46.2 (44496) - http://www.bohemiancoding.com/sketch -->
    <title>Group 20</title>
    <desc>Created with Sketch.</desc>
    <defs></defs>
    <g id="Page-1" stroke="none" stroke-width="1" fill="none" fill-rule="evenodd">
        <g id="Artboard-3" transform="translate(-658.000000, -1729.000000)">
            <g id="Group-4" transform="translate(297.000000, 1212.000000)">
                <g id="Group-26" transform="translate(359.000000, 518.000000)">
                    <g id="Group-20" transform="translate(3.000000, 0.000000)">
                        <g id="Group-12" stroke="#979797" fill="transparent">
                            <circle id="Oval-3-Copy-3" cx="17.5" cy="17.5" r="17.5"></circle>
                        </g>
                        <g id="arrows" transform="translate(18.000000, 17.500000) rotate(90.000000) translate(-18.000000, -17.500000) translate(10.000000, 10.000000)" fill-rule="nonzero" fill="#ffffff">
                            <path d="M15.6934824,10.6268433 C15.6633743,10.5967325 15.6314785,10.5686356 15.5979833,10.54265 C15.1783202,10.251254 14.6170864,10.3148537 14.2682087,10.6933664 L13.9520736,11.0207849 C13.8432767,11.1338547 13.7518861,11.2635554 13.6811007,11.4053717 L13.485398,11.7951557 L13.485398,2.10772549 C13.5052819,1.57999052 13.1523271,1.11533558 12.6524072,1.01113334 C12.1040006,0.927849503 11.5942328,1.32081668 11.5138504,1.88879684 C11.5062607,1.94235965 11.502748,1.99644218 11.5032812,2.05055718 L11.5032812,11.7795643 L11.3677947,11.4729343 C11.294563,11.3090301 11.1943909,11.159548 11.0717317,11.0311792 L10.7405426,10.6881693 C10.3916649,10.3096566 9.83043107,10.2460569 9.41076801,10.5374528 C8.96356859,10.8765973 8.86646995,11.5269843 9.19392694,11.9901776 C9.22039698,12.0275968 9.24925058,12.0631646 9.28029956,12.0965886 L11.7893082,14.6951482 C12.1810272,15.1013031 12.816465,15.1016604 13.208623,14.6959602 C13.2088739,14.6957004 13.2091562,14.6954081 13.2094071,14.6951482 L15.7184157,12.0965886 C16.1033917,11.68358 16.0922266,11.0255598 15.6934824,10.6268433 Z" id="Shape"></path>
                            <path d="M6.67940802,3.06321117 L4.22211311,0.325122247 C3.83302065,-0.108038987 3.20184352,-0.108420047 2.81231492,0.324256202 C2.8120657,0.324533336 2.81178533,0.324845113 2.81153611,0.325122247 L0.319350606,3.09646732 C-0.0436673649,3.48182285 -0.104663605,4.1017381 0.174803847,4.5652802 C0.500065208,5.05923782 1.12382809,5.16648887 1.56806015,4.8047937 C1.60394763,4.77555601 1.63805942,4.74368554 1.67011515,4.70939014 L2.00905238,4.33248722 C2.17151172,4.15169159 2.29434532,3.93168144 2.36792709,3.68953516 L2.50250511,3.34588837 L2.50250511,13.81603 C2.48359565,14.3823198 2.83932398,14.8791526 3.33987944,14.9855377 C3.88333164,15.0835393 4.39535116,14.6731031 4.48348107,14.0687421 C4.4927333,14.0053475 4.49700117,13.9411909 4.49625352,13.8769996 L4.49625352,3.34588837 L4.59594094,3.66182171 C4.67079996,3.89551538 4.79170211,4.10762721 4.94983128,4.282603 L5.30870599,4.68167669 C5.69786076,5.114734 6.32903789,5.11501114 6.71850418,4.6822656 C6.73784977,4.66075304 6.75641655,4.63837443 6.77411107,4.61516441 C7.10843775,4.14850454 7.06734785,3.47534483 6.67940802,3.06321117 Z" id="Shape"></path>
                        </g>
                    </g>
                </g>
            </g>
        </g>
    </g>
</svg>